<svg xmlns="http://www.w3.org/2000/svg" xml:space="preserve" width="655.359" height="655.359" style="shape-rendering:geometricPrecision;text-rendering:geometricPrecision;image-rendering:optimizeQuality;fill-rule:evenodd;clip-rule:evenodd" viewBox="0 0 6.827 6.827"><defs><style>.fil0{fill:none}.fil1{fill:#212121;fill-rule:nonzero}</style></defs><g id="Layer_x0020_1"><g id="_372404344"><path id="_372404824" class="fil0" d="M0 0h6.827v6.827H0z"/><path id="_372404368" class="fil0" d="M.853.853h5.12v5.12H.853z"/></g><path class="fil1" d="M1.983.96h3.24a.28.28 0 0 1 .28.28v4.044a.28.28 0 0 1-.28.28h-3.24a.28.28 0 0 1-.28-.28V1.24a.28.28 0 0 1 .28-.281zm3.24.213h-3.24a.067.067 0 0 0-.048.02.067.067 0 0 0-.02.048v4.043c0 .018.008.035.02.047.013.012.03.02.048.02h3.24a.067.067 0 0 0 .047-.02.067.067 0 0 0 .02-.047V1.24a.067.067 0 0 0-.02-.048.067.067 0 0 0-.047-.02z"/><path class="fil1" d="M5.12 5.666a.287.287 0 0 1-.288.288h-3.37a.287.287 0 0 1-.287-.288V1.461a.287.287 0 0 1 .288-.288h.142v.214h-.142a.074.074 0 0 0-.053.022.074.074 0 0 0-.022.052v4.205c0 .02.009.039.022.052a.074.074 0 0 0 .053.022h3.37c.02 0 .038-.008.052-.022a.074.074 0 0 0 .022-.052h.213z"/><path d="M2.32 3.832v-.977h.316c.12 0 .198.005.234.014a.256.256 0 0 1 .14.096c.039.05.058.113.058.19 0 .06-.011.11-.033.152a.268.268 0 0 1-.083.096.286.286 0 0 1-.102.046c-.047.01-.116.014-.205.014h-.129v.369H2.32zm.196-.812v.277h.108a.51.51 0 0 0 .156-.015.13.13 0 0 0 .062-.048.132.132 0 0 0 .022-.076.126.126 0 0 0-.031-.088.136.136 0 0 0-.08-.043.938.938 0 0 0-.141-.007h-.096zm.713-.165h.36c.082 0 .144.006.186.018a.324.324 0 0 1 .147.09c.041.043.073.096.094.159.021.062.032.139.032.23 0 .081-.01.15-.03.209a.427.427 0 0 1-.105.172.344.344 0 0 1-.138.078.593.593 0 0 1-.175.02h-.371v-.976zm.197.165v.647h.147a.53.53 0 0 0 .12-.01.182.182 0 0 0 .08-.04.208.208 0 0 0 .051-.094.643.643 0 0 0 .02-.18.587.587 0 0 0-.02-.173.224.224 0 0 0-.056-.095.188.188 0 0 0-.091-.046.88.88 0 0 0-.162-.009h-.089zm.79.812v-.977h.67v.165h-.472v.231h.408v.166h-.408v.415h-.198z" style="fill:#66bb6a;fill-rule:nonzero"/></g></svg>